<?xml version="1.0" encoding="UTF-8" standalone="no"?>
<!-- Generator: Adobe Illustrator 24.1.0, SVG Export Plug-In . SVG Version: 6.00 Build 0)  -->

<svg
   version="1.0"
   id="Layer_1"
   x="0px"
   y="0px"
   viewBox="0 0 311.04 108.79"
   style="enable-background:new 0 0 311.04 108.79;"
   xml:space="preserve"
   sodipodi:docname="logo-banner.svg"
   inkscape:version="1.1.2 (b8e25be833, 2022-02-05)"
   xmlns:inkscape="http://www.inkscape.org/namespaces/inkscape"
   xmlns:sodipodi="http://sodipodi.sourceforge.net/DTD/sodipodi-0.dtd"
   xmlns="http://www.w3.org/2000/svg"
   xmlns:svg="http://www.w3.org/2000/svg"><defs
   id="defs37">
	
	
	
	
	
	
	
</defs><sodipodi:namedview
   id="namedview35"
   pagecolor="#505050"
   bordercolor="#ffffff"
   borderopacity="1"
   inkscape:pageshadow="0"
   inkscape:pageopacity="0"
   inkscape:pagecheckerboard="1"
   showgrid="false"
   inkscape:snap-global="false"
   inkscape:zoom="1.7714763"
   inkscape:cx="114.87594"
   inkscape:cy="45.724575"
   inkscape:window-width="1920"
   inkscape:window-height="1017"
   inkscape:window-x="-8"
   inkscape:window-y="-8"
   inkscape:window-maximized="1"
   inkscape:current-layer="Layer_1" />
<style
   type="text/css"
   id="style2">
	.st0{fill:#FF8001;}
	.st1{fill:#FF6601;}
	.st2{fill:#FFB301;}
	.st3{fill:#0B0146;}
	.st4{fill:#FFCC01;}
	.st5{fill:#FF9901;}
</style>

<g
   id="g34554"
   inkscape:export-filename="C:\Solar2D\BCBProjects\fmxSolar2DGUI\Solar2DBanner.png"
   inkscape:export-xdpi="79.012901"
   inkscape:export-ydpi="79.012901"><path
     class="st0"
     d="m 63.02,42.75 v 0 C 61.09,41.13 60.84,38.24 62.46,36.31 L 91.56,1.63 C 93.18,-0.3 96.07,-0.55 98,1.07 v 0 c 1.83,1.54 2.07,4.3 0.54,6.13 L 69.16,42.21 c -1.55,1.84 -4.31,2.08 -6.14,0.54 z"
     id="path4" /><path
     class="st1"
     d="m 53.69,40.84 v 0 c -2.44,0.89 -5.17,-0.38 -6.06,-2.83 L 42.69,24.44 C 41.8,22 43.07,19.27 45.52,18.38 v 0 c 2.17,-0.79 4.59,0.34 5.38,2.51 l 5.3,14.57 c 0.79,2.17 -0.34,4.59 -2.51,5.38 z"
     id="path6" /><path
     class="st2"
     d="m 64.89,57.4 v 0 c 2.36,-0.86 5,0.37 5.86,2.73 l 15.48,42.54 c 0.86,2.36 -0.37,5 -2.73,5.86 v 0 c -2.25,0.82 -4.76,-0.35 -5.58,-2.6 L 62.29,62.98 c -0.82,-2.25 0.35,-4.76 2.6,-5.58 z"
     id="path8" /><path
     class="st3"
     d="m 57.33,61.42 v 0 c 1.99,1.67 2.25,4.67 0.58,6.66 l -9.28,11.06 c -1.67,1.99 -4.67,2.25 -6.66,0.58 v 0 c -1.77,-1.48 -2,-4.14 -0.52,-5.91 l 9.97,-11.88 c 1.48,-1.76 4.14,-1.99 5.91,-0.51 z"
     id="path10" /><path
     class="st4"
     d="m 53.66,52.53 v 0 c -0.44,2.48 -2.82,4.14 -5.3,3.71 L 3.78,48.38 C 1.3,47.94 -0.36,45.56 0.07,43.08 v 0 c 0.42,-2.36 2.68,-3.94 5.04,-3.53 l 45.01,7.94 c 2.37,0.42 3.96,2.68 3.54,5.04 z"
     id="path12" /><path
     class="st5"
     d="m 94.53,51.43 v 0 c -0.45,2.56 -2.92,4.29 -5.48,3.83 L 74.83,52.75 C 72.27,52.3 70.54,49.83 71,47.27 v 0 c 0.4,-2.27 2.59,-3.8 4.86,-3.4 l 15.27,2.69 c 2.27,0.41 3.8,2.6 3.4,4.87 z"
     id="path14" /><g
     id="g30">
		<path
   class="st3"
   d="m 109.66,68.78 v -2.17 c 3.25,1.01 6.84,1.52 10.76,1.52 6.35,0 9.52,-2.53 9.52,-7.59 0,-3.47 -2.11,-5.21 -6.33,-5.21 h -6.81 c -5.77,0 -8.65,-2.53 -8.65,-7.59 0,-6.07 4.16,-9.11 12.47,-9.11 3.47,0 6.83,0.43 10.09,1.3 v 1.95 c -3.25,-0.87 -6.61,-1.3 -10.09,-1.3 -6.8,0 -10.19,2.39 -10.19,7.16 0,3.62 2.13,5.42 6.38,5.42 h 6.81 c 5.74,0 8.61,2.46 8.61,7.37 0,6.36 -3.93,9.54 -11.8,9.54 -3.93,0.01 -7.52,-0.42 -10.77,-1.29 z"
   id="path16" />
		<path
   class="st3"
   d="m 137.2,54.4 c 0,-10.51 5.19,-15.77 15.57,-15.77 10.22,0 15.33,5.26 15.33,15.77 0,10.45 -5.11,15.68 -15.33,15.68 -10.37,0 -15.57,-5.23 -15.57,-15.68 z m 15.58,13.73 c 8.56,0 12.84,-4.62 12.84,-13.86 0,-9.12 -4.28,-13.69 -12.84,-13.69 -8.72,0 -13.08,4.56 -13.08,13.69 0,9.24 4.36,13.86 13.08,13.86 z"
   id="path18" />
		<path
   class="st3"
   d="m 175.81,38.85 v 29.06 h 17.96 v 1.95 H 173.53 V 38.84 Z"
   id="path20" />
		<path
   class="st3"
   d="m 196.48,69.86 14.03,-31.02 h 2.71 l 14.1,31.02 h -2.71 l -4.55,-10.41 h -13.19 l 0.67,-1.95 h 11.65 l -7.46,-16.87 -12.82,29.24 z"
   id="path22" />
		<path
   class="st3"
   d="M 231.12,69.86 V 38.84 h 12.8 c 5.61,0 8.42,2.48 8.42,7.44 0,4.29 -3.04,7.34 -9.13,9.13 l 10.48,14.44 h -3.12 l -10.3,-14.38 v -1.54 c 6.36,-0.94 9.54,-3.43 9.54,-7.48 0,-3.73 -2.08,-5.6 -6.25,-5.6 h -10.15 v 29 h -2.29 z"
   id="path24" />
		<path
   class="st1"
   d="m 256.39,69.86 v -4.34 c 10.34,-7.19 15.51,-13.11 15.51,-17.79 0,-2.75 -1.88,-4.12 -5.64,-4.12 -3.18,0 -6.18,0.8 -9,2.39 v -5.21 c 2.82,-1.45 5.82,-2.17 9,-2.17 7.59,0 11.39,3.04 11.39,9.11 0,5.35 -4.14,11.06 -12.43,17.13 h 12.43 v 4.99 h -21.26 z"
   id="path26" />
		<path
   class="st1"
   d="M 283.06,69.86 V 38.84 h 13.45 c 9.69,0 14.53,4.89 14.53,14.66 0,10.9 -4.84,16.35 -14.53,16.35 z m 12.58,-4.99 c 6.43,0 9.65,-3.79 9.65,-11.37 0,-6.45 -3.22,-9.67 -9.65,-9.67 h -6.83 v 21.04 z"
   id="path28" />
	</g><g
     id="g34524"
     transform="translate(3.419235)"><g
       id="g15700"><path
         d="m 134.43253,90.201825 q -1.3589,0.623758 -2.97399,1.091576 -1.60395,0.456679 -3.10765,0.456679 -1.9381,0 -3.55319,-0.534649 -1.61508,-0.534649 -2.75121,-1.603948 -1.14727,-1.080437 -1.77103,-2.695523 -0.62376,-1.626225 -0.62376,-3.798237 0,-3.976454 2.31682,-6.27099 2.32795,-2.305675 6.38237,-2.305675 1.4146,0 2.88488,0.345294 1.48142,0.334156 3.18562,1.147268 v 2.617554 h -0.20049 q -0.3453,-0.267325 -1.00247,-0.701727 -0.65717,-0.434403 -1.29207,-0.724004 -0.76856,-0.345295 -1.74875,-0.568065 -0.96905,-0.233909 -2.20543,-0.233909 -2.78463,0 -4.41085,1.793302 -1.61509,1.782165 -1.61509,4.834121 0,3.219034 1.69306,5.012336 1.69305,1.782164 4.61135,1.782164 1.06929,0 2.12745,-0.211632 1.0693,-0.211632 1.87128,-0.545787 v -4.065562 h -4.44428 v -1.938104 h 6.62743 z"
         id="path15645"
         style="font-size:22.8117px;line-height:1.25;fill:#ffcc01;stroke-width:0.570293" /><path
         d="m 150.77274,84.766225 q 0,1.804441 -0.40098,3.152202 -0.38985,1.336623 -1.29207,2.227706 -0.85767,0.846527 -2.00494,1.236376 -1.14726,0.389848 -2.67324,0.389848 -1.5594,0 -2.7178,-0.412125 -1.15841,-0.412126 -1.94924,-1.214099 -0.90223,-0.91336 -1.30321,-2.205429 -0.38985,-1.292069 -0.38985,-3.174479 v -9.924427 h 2.20543 V 84.87761 q 0,1.347761 0.17821,2.127458 0.18936,0.779697 0.62376,1.414593 0.4901,0.724004 1.32549,1.091576 0.84652,0.367571 2.02721,0.367571 1.19182,0 2.02721,-0.356433 0.83539,-0.367571 1.33662,-1.102714 0.43441,-0.634896 0.61262,-1.448008 0.18936,-0.824251 0.18936,-2.038351 V 74.841798 h 2.20542 z"
         id="path15647"
         style="font-size:22.8117px;line-height:1.25;fill:#ffcc01;stroke-width:0.570293" /><path
         d="m 160.83083,91.427063 h -6.54945 v -1.693056 h 2.17201 V 76.534854 h -2.17201 v -1.693056 h 6.54945 v 1.693056 h -2.17201 v 13.199153 h 2.17201 z"
         id="path15649"
         style="font-size:22.8117px;line-height:1.25;fill:#ffcc01;stroke-width:0.570293" /></g><g
       id="g15710"
       style="fill:#ff8001;fill-opacity:1"><path
         d="m 186.61652,83.151138 q 0,2.261121 -0.99133,4.098978 -0.98019,1.837857 -2.61755,2.851462 -1.13613,0.701728 -2.53959,1.013606 -1.39231,0.311879 -3.67571,0.311879 h -4.18809 V 74.841798 h 4.14354 q 2.42819,0 3.85393,0.356433 1.43687,0.345294 2.42819,0.957913 1.69306,1.05816 2.63983,2.818047 0.94678,1.759887 0.94678,4.176947 z m -2.30568,-0.03342 q 0,-1.949242 -0.67945,-3.285865 -0.67945,-1.336623 -2.02721,-2.105182 -0.98019,-0.556926 -2.0829,-0.768558 -1.10272,-0.222771 -2.63983,-0.222771 h -2.07177 v 12.798167 h 2.07177 q 1.59281,0 2.77349,-0.233909 1.19182,-0.233909 2.18315,-0.868805 1.23638,-0.790836 1.849,-2.082905 0.62375,-1.292069 0.62375,-3.230172 z"
         id="path15651"
         style="font-size:22.8117px;line-height:1.25;fill:#ff8001;fill-opacity:1;stroke-width:0.570293" /><path
         d="M 201.10774,91.427063 H 190.18085 V 74.841798 h 10.92689 v 1.960381 h -8.72147 v 4.544518 h 8.72147 v 1.960381 h -8.72147 v 6.159604 h 8.72147 z"
         id="path15653"
         style="font-size:22.8117px;line-height:1.25;fill:#ff8001;fill-opacity:1;stroke-width:0.570293" /><path
         d="m 216.65712,86.69319 q 0,0.969051 -0.45668,1.915826 -0.44554,0.946775 -1.25865,1.603948 -0.89108,0.712865 -2.0829,1.113852 -1.18069,0.400987 -2.85147,0.400987 -1.7933,0 -3.23017,-0.334156 -1.42573,-0.334155 -2.90715,-0.991328 v -2.762355 h 0.15593 q 1.25866,1.047022 2.90716,1.615086 1.6485,0.568065 3.09651,0.568065 2.04949,0 3.18562,-0.768558 1.14727,-0.768558 1.14727,-2.049489 0,-1.102714 -0.54579,-1.626225 -0.53465,-0.52351 -1.63736,-0.813112 -0.83539,-0.22277 -1.81558,-0.367571 -0.96906,-0.144801 -2.06063,-0.367572 -2.20543,-0.467818 -3.27473,-1.592809 -1.05816,-1.136129 -1.05816,-2.951709 0,-2.082904 1.75989,-3.408389 1.75989,-1.336623 4.46655,-1.336623 1.74875,0 3.20789,0.334156 1.45915,0.334155 2.58414,0.824251 v 2.606415 h -0.15594 q -0.94677,-0.801974 -2.49503,-1.325485 -1.53711,-0.534649 -3.1522,-0.534649 -1.77103,0 -2.85146,0.735143 -1.0693,0.735142 -1.0693,1.893549 0,1.035883 0.53465,1.626225 0.53465,0.590342 1.88241,0.90222 0.71286,0.15594 2.02721,0.37871 1.31435,0.222771 2.22771,0.45668 1.84899,0.490095 2.78463,1.481424 0.93563,0.991328 0.93563,2.773493 z"
         id="path15655"
         style="font-size:22.8117px;line-height:1.25;fill:#ff8001;fill-opacity:1;stroke-width:0.570293" /><path
         d="m 226.0469,91.427063 h -6.54946 v -1.693056 h 2.17202 V 76.534854 h -2.17202 v -1.693056 h 6.54946 v 1.693056 h -2.17202 v 13.199153 h 2.17202 z"
         id="path15657"
         style="font-size:22.8117px;line-height:1.25;fill:#ff8001;fill-opacity:1;stroke-width:0.570293" /><path
         d="m 243.63463,90.201825 q -1.3589,0.623758 -2.97399,1.091576 -1.60394,0.456679 -3.10764,0.456679 -1.93811,0 -3.55319,-0.534649 -1.61509,-0.534649 -2.75122,-1.603948 -1.14727,-1.080437 -1.77103,-2.695523 -0.62375,-1.626225 -0.62375,-3.798237 0,-3.976454 2.31681,-6.27099 2.32795,-2.305675 6.38238,-2.305675 1.41459,0 2.88487,0.345294 1.48143,0.334156 3.18562,1.147268 v 2.617554 H 243.423 q -0.3453,-0.267325 -1.00247,-0.701727 -0.65717,-0.434403 -1.29207,-0.724004 -0.76856,-0.345295 -1.74875,-0.568065 -0.96905,-0.233909 -2.20542,-0.233909 -2.78464,0 -4.41086,1.793302 -1.61509,1.782165 -1.61509,4.834121 0,3.219034 1.69306,5.012336 1.69305,1.782164 4.61135,1.782164 1.0693,0 2.12746,-0.211632 1.0693,-0.211632 1.87127,-0.545787 v -4.065562 h -4.44427 v -1.938104 h 6.62742 z"
         id="path15659"
         style="font-size:22.8117px;line-height:1.25;fill:#ff8001;fill-opacity:1;stroke-width:0.570293" /><path
         d="m 260.14193,91.427063 h -2.72894 l -7.8638,-14.836516 v 14.836516 h -2.06063 V 74.841798 h 3.41953 l 7.17321,13.544447 V 74.841798 h 2.06063 z"
         id="path15661"
         style="font-size:22.8117px;line-height:1.25;fill:#ff8001;fill-opacity:1;stroke-width:0.570293" /><path
         d="M 275.47967,91.427063 H 264.55278 V 74.841798 h 10.92689 v 1.960381 h -8.72146 v 4.544518 h 8.72146 v 1.960381 h -8.72146 v 6.159604 h 8.72146 z"
         id="path15663"
         style="font-size:22.8117px;line-height:1.25;fill:#ff8001;fill-opacity:1;stroke-width:0.570293" /><path
         d="m 292.69983,91.427063 h -2.8626 l -5.54698,-6.594007 h -3.10765 v 6.594007 h -2.20543 V 74.841798 h 4.64477 q 1.5037,0 2.50616,0.200494 1.00247,0.189354 1.80445,0.690588 0.90222,0.568065 1.40345,1.43687 0.51237,0.857666 0.51237,2.183151 0,1.793303 -0.90222,3.007402 -0.90222,1.202961 -2.48389,1.81558 z M 287.5427,79.50884 q 0,-0.712865 -0.25619,-1.258653 -0.24505,-0.556926 -0.82425,-0.935636 -0.47896,-0.323017 -1.13613,-0.445541 -0.65717,-0.133663 -1.54825,-0.133663 h -2.59528 v 6.259852 h 2.2277 q 1.04703,0 1.82672,-0.178216 0.7797,-0.189355 1.32549,-0.690589 0.50123,-0.467818 0.73514,-1.069299 0.24505,-0.612618 0.24505,-1.548255 z"
         id="path15665"
         style="font-size:22.8117px;line-height:1.25;fill:#ff8001;fill-opacity:1;stroke-width:0.570293" /></g></g></g></svg>
